# xmcd
#
# Track frame offsets:
#	150
#	11955
#	22612
#	33922
#	44592
#	57542
#	69005
#	81050
#	94060
#	103222
#	114342
#
# Disc length: 1663 seconds
#
# Revision: 1
# Processed by: cddbd v1.4PL0 Copyright (c) Steve Scherf et al.
# Submitted via: audiograbber 1.81.02
#
DISCID=83067d0b
DTITLE=Eddy Arnold - The Hits
DYEAR=1900
DGENRE=Country
TTITLE0=I'll Hold You In My Heart
TTITLE1=Turn The World Around
TTITLE2=I Want To Go With You
TTITLE3=Take Me In Your Arms And Hold Me
TTITLE4=I Really Don't Want To Know
TTITLE5=Make The World Go Away
TTITLE6=Bouquet Of Roses
TTITLE7=Cattle Call
TTITLE8=What's He Doing In My World
TTITLE9=Don't Rob Another Mans Castle
TTITLE10=Anytime
EXTD=
EXTT0=
EXTT1=
EXTT2=
EXTT3=
EXTT4=
EXTT5=
EXTT6=
EXTT7=
EXTT8=
EXTT9=
EXTT10=
PLAYORDER=
